<svg width="512" height="512" viewBox="0 0 512 512" fill="none" xmlns="http://www.w3.org/2000/svg">
<path fill-rule="evenodd" clip-rule="evenodd" d="M256 512C397.385 512 512 397.385 512 256C512 114.615 397.385 0 256 0C114.615 0 0 114.615 0 256C0 397.385 114.615 512 256 512ZM256 484C381.921 484 484 381.921 484 256C484 130.079 381.921 28 256 28C130.079 28 28 130.079 28 256C28 381.921 130.079 484 256 484Z" fill="#C4C4C4"/>
<path fill-rule="evenodd" clip-rule="evenodd" d="M256 512C397.385 512 512 397.385 512 256C512 114.615 397.385 0 256 0C114.615 0 0 114.615 0 256C0 397.385 114.615 512 256 512ZM256 484C381.921 484 484 381.921 484 256C484 130.079 381.921 28 256 28C130.079 28 28 130.079 28 256C28 381.921 130.079 484 256 484Z" fill="url(#paint0_linear)"/>
<g filter="url(#filter0_d)">
<path d="M198.404 464.625C184.454 464.625 173.879 461.25 166.679 454.5C159.479 447.3 155.879 438.075 155.879 426.825C155.879 414.675 159.254 403.425 166.004 393.075C173.204 382.275 182.429 373.725 193.679 367.425C204.929 361.125 216.63 357.975 228.779 357.975C234.179 357.975 239.579 358.65 244.98 360C250.829 360.9 256.454 362.475 261.854 364.725V36.675H286.829V75.15C291.33 82.35 296.28 89.325 301.68 96.075C307.529 102.375 313.154 108.675 318.555 114.975C328.905 126.225 338.805 138.375 348.255 151.425C357.705 164.475 365.355 179.55 371.204 196.65C377.505 213.75 380.655 234 380.655 257.4C380.655 298.8 369.18 336.15 346.229 369.45H329.355C337.005 351.9 342.63 335.025 346.229 318.825C349.83 302.175 351.63 286.875 351.63 272.925C351.63 243.675 344.88 220.725 331.38 204.075C317.88 186.975 303.03 175.95 286.829 171V366.75C286.829 386.1 282.554 403.2 274.004 418.05C265.904 432.45 255.104 443.925 241.604 452.475C228.554 460.575 214.154 464.625 198.404 464.625Z" fill="#006666"/>
</g>
<defs>
<filter id="filter0_d" x="151.879" y="36.675" width="232.775" height="435.95" filterUnits="userSpaceOnUse" color-interpolation-filters="sRGB">
<feFlood flood-opacity="0" result="BackgroundImageFix"/>
<feColorMatrix in="SourceAlpha" type="matrix" values="0 0 0 0 0 0 0 0 0 0 0 0 0 0 0 0 0 0 127 0"/>
<feOffset dy="4"/>
<feGaussianBlur stdDeviation="2"/>
<feColorMatrix type="matrix" values="0 0 0 0 0 0 0 0 0 0 0 0 0 0 0 0 0 0 0.25 0"/>
<feBlend mode="normal" in2="BackgroundImageFix" result="effect1_dropShadow"/>
<feBlend mode="normal" in="SourceGraphic" in2="effect1_dropShadow" result="shape"/>
</filter>
<linearGradient id="paint0_linear" x1="487" y1="164" x2="76" y2="244" gradientUnits="userSpaceOnUse">
<stop stop-color="#0F2027"/>
<stop offset="0.494792" stop-color="#203A43"/>
<stop offset="1" stop-color="#2C5364"/>
</linearGradient>
</defs>
</svg>
