<?xml version="1.0" standalone="no"?>
<!DOCTYPE svg PUBLIC "-//W3C//DTD SVG 20010904//EN"
 "http://www.w3.org/TR/2001/REC-SVG-20010904/DTD/svg10.dtd">
<svg version="1.0" xmlns="http://www.w3.org/2000/svg"
 width="700.000000pt" height="700.000000pt" viewBox="0 0 700.000000 700.000000"
 preserveAspectRatio="xMidYMid meet">
<metadata>
Created by potrace 1.11, written by Peter Selinger 2001-2013
</metadata>
<g transform="translate(0.000000,700.000000) scale(0.100000,-0.100000)"
fill="#000000" stroke="none">
<path d="M3215 6989 c-600 -51 -1153 -244 -1650 -574 -420 -280 -790 -663
-1048 -1085 -268 -440 -426 -895 -493 -1425 -25 -195 -25 -615 0 -810 91 -716
367 -1346 819 -1870 581 -674 1353 -1086 2252 -1202 168 -21 613 -24 770 -5
442 54 808 160 1180 342 841 412 1491 1162 1785 2061 161 491 209 1060 134
1579 -172 1186 -943 2208 -2033 2695 -531 238 -1144 342 -1716 294z m652 -394
c1180 -139 2185 -946 2576 -2071 334 -962 177 -2033 -418 -2850 -220 -301
-493 -563 -800 -769 -555 -371 -1244 -558 -1904 -516 -518 33 -980 174 -1419
435 -359 214 -702 531 -947 876 -548 775 -712 1750 -449 2670 105 368 307 757
555 1071 97 123 369 397 489 493 137 109 364 256 515 333 412 211 772 308
1280 347 91 7 393 -4 522 -19z"/>
<path d="M3580 4256 l0 -2244 -50 19 c-27 10 -107 31 -177 45 -171 35 -349 31
-488 -10 -175 -53 -322 -141 -456 -275 -147 -148 -232 -304 -264 -486 -19
-109 -19 -163 -1 -258 29 -151 125 -280 249 -337 172 -78 451 -80 676 -5 372
124 694 478 801 883 49 183 50 194 50 1680 0 765 2 1392 4 1392 13 0 100 -36
160 -66 193 -98 414 -311 539 -519 140 -234 207 -604 177 -980 -26 -343 -99
-649 -236 -997 -30 -75 -54 -139 -54 -142 0 -3 51 -6 113 -6 l112 0 56 88
c199 309 325 650 386 1042 26 165 26 645 0 810 -38 245 -109 470 -222 708
-124 259 -311 511 -694 935 -134 148 -197 227 -281 350 l-60 88 0 265 0 264
-170 0 -170 0 0 -2244z"/>
</g>
</svg>
