<svg width="100" height="70" viewBox="0 0 100 70" fill="none" xmlns="http://www.w3.org/2000/svg">
<g clip-path="url(#clip0)">
<line x1="1.25" y1="16.75" x2="98.75" y2="16.875" stroke="black" stroke-opacity="0.25" stroke-width="2.5" stroke-linecap="round" stroke-linejoin="round"/>
<line x1="1.25" y1="28.75" x2="98.75" y2="28.875" stroke="black" stroke-opacity="0.25" stroke-width="2.5" stroke-linecap="round" stroke-linejoin="round"/>
<line x1="1.25" y1="40.75" x2="98.75" y2="40.875" stroke="black" stroke-opacity="0.25" stroke-width="2.5" stroke-linecap="round" stroke-linejoin="round"/>
<line x1="1.25" y1="52.75" x2="98.75" y2="52.875" stroke="black" stroke-opacity="0.25" stroke-width="2.5" stroke-linecap="round" stroke-linejoin="round"/>
<line x1="1.25" y1="64.75" x2="98.75" y2="64.875" stroke="black" stroke-opacity="0.25" stroke-width="2.5" stroke-linecap="round" stroke-linejoin="round"/>
<path d="M28.8 44.575V29.1H30.75V37.85C31.1167 37.4 31.525 37.0667 31.975 36.85C32.4417 36.6167 32.8917 36.5 33.325 36.5C34.025 36.5 34.5833 36.7667 35 37.3C35.4167 37.8167 35.625 38.5167 35.625 39.4C35.625 40.4333 35.3333 41.35 34.75 42.15C34.1833 42.95 33.4083 43.575 32.425 44.025C31.975 44.225 31.5167 44.3667 31.05 44.45C30.5833 44.5333 30.0833 44.575 29.55 44.575H28.8ZM32.6 38.6C32.2833 38.6 31.9583 38.725 31.625 38.975C31.2917 39.225 31 39.5333 30.75 39.9V42.8C31.5833 42.6167 32.225 42.2167 32.675 41.6C32.8917 41.3333 33.05 41.0333 33.15 40.7C33.2667 40.3667 33.325 40.0333 33.325 39.7C33.325 39.3 33.2583 39.0167 33.125 38.85C33.0083 38.6833 32.8333 38.6 32.6 38.6Z" fill="black"/>
<g clip-path="url(#clip1)">
<path d="M19.0485 16.1378C18.1553 17.6831 17.119 18.9721 15.9607 19.9812L14.0645 21.6954C11.1664 24.6145 9.08113 26.9729 7.86337 28.7042C5.64534 31.8529 4.42933 35.0517 4.24596 38.2114C4.04129 41.775 4.93837 45.1575 6.91285 48.2674C9.00639 51.5812 11.6492 53.3777 14.7699 53.6081C15.4849 53.6618 16.2684 53.653 16.92 53.6045L16.6764 51.1165C16.2223 51.1638 15.7409 51.1714 15.2364 51.1333C13.1861 50.9814 11.3552 50.0225 9.79092 48.2837C8.15624 46.4781 7.42385 44.488 7.55595 42.2018C7.80558 37.8706 10.2852 33.5827 14.9266 29.449L16.9999 27.5779C18.8236 25.8114 20.3006 23.5912 21.3921 20.9728C22.4721 18.3736 23.1054 15.5599 23.2764 12.6108C23.3776 10.878 23.1649 8.72649 22.652 6.2174C21.9478 2.80981 20.9456 1.10442 19.5808 1.00248C19.0958 0.968502 18.5648 1.24526 17.917 1.8931C16.3414 3.50541 15.1962 5.45876 14.5096 7.68986C13.98 9.39525 13.6282 11.6761 13.4657 14.4683C13.3977 15.6305 13.5337 17.7772 13.8579 20.3685L15.7793 18.3514C15.7732 18.0601 15.7804 17.7572 15.8002 17.4396C15.9014 15.6616 16.2975 13.7309 16.9721 11.7042C17.8316 9.16896 18.6426 8.40245 19.1736 8.20669C19.3187 8.15301 19.4604 8.13332 19.6114 8.14415C20.3034 8.19635 20.9927 8.52802 20.8748 10.6013C20.7753 12.3591 20.1598 14.2209 19.0485 16.1378Z" fill="black"/>
<path d="M20.7505 52.5018C21.995 51.8695 23.058 50.9067 23.9173 49.633C25.0156 48.0175 25.633 46.108 25.7569 43.9581C25.9133 41.3188 25.3541 38.9257 24.102 36.8433C22.7284 34.5622 20.8474 33.318 18.5086 33.1434C18.2409 33.1235 17.9561 33.125 17.6623 33.1496L17.1618 28.9166L15.0613 30.6678L15.3835 33.6704C14.1257 34.2596 13.0312 35.1896 12.1208 36.4417C11.073 37.9004 10.4896 39.5055 10.3906 41.2141C10.2893 42.989 10.6387 44.6146 11.4295 46.0361C11.8412 46.7947 12.4087 47.4691 13.0585 48.0202C14.1244 48.9189 15.3535 48.8514 15.5481 48.3632C15.745 47.8749 15.0148 47.1086 14.4423 46.086C14.116 45.5071 13.9552 44.8123 13.9552 43.9938C13.9552 42.2572 14.8799 40.7643 16.1967 40.1036L17.4292 50.9897L17.7171 53.5155C17.9048 54.7154 18.0906 55.9101 18.2683 57.0908C18.4855 58.6884 18.562 60.0732 18.4944 61.2066C18.4034 62.7763 17.9713 64.0589 17.2085 65.0214C16.7231 65.6333 16.156 66.0199 15.5149 66.2341C16.3755 65.2585 16.9084 63.9121 16.9084 62.4229C16.9084 59.4497 14.781 57.0374 12.1569 57.0374C11.4284 57.0374 10.7467 57.2373 10.1301 57.569C10.0519 57.6072 9.9782 57.6645 9.90107 57.7103C9.73182 57.815 9.56236 57.9196 9.40441 58.0457C9.35031 58.0917 9.2986 58.1449 9.24538 58.1947C8.1834 59.1343 7.48751 60.5624 7.42581 62.1907C7.42581 62.1932 7.42341 62.1959 7.42341 62.1984C7.42341 62.1996 7.42341 62.2008 7.42341 62.2023C7.42059 62.2789 7.40386 62.3476 7.40386 62.4229C7.40386 62.4867 7.41842 62.5441 7.42081 62.6051C7.41842 64.3494 8.05804 65.8502 9.34119 67.0663C10.5544 68.2153 12.0085 68.8589 13.663 68.9813C14.6031 69.0502 15.5108 68.9278 16.3585 68.6156C17.0514 68.3593 17.7219 67.9705 18.3463 67.4615C19.8584 66.225 20.6818 64.6092 20.7952 62.6522C20.8819 61.1593 20.8157 59.3933 20.5917 57.3801L19.9751 52.8424L18.4204 39.817C20.155 40.1942 21.4679 41.9206 21.4679 43.995C21.4679 45.469 21.0471 47.7946 20.2619 49.0122L20.7505 52.5018Z" fill="black"/>
</g>
</g>
<defs>
<clipPath id="clip0">
<rect width="100" height="70" fill="white"/>
</clipPath>
<clipPath id="clip1">
<rect width="60" height="68" fill="white" transform="translate(-15 1)"/>
</clipPath>
</defs>
</svg>
