<svg width="100" height="70" viewBox="0 0 100 70" fill="none" xmlns="http://www.w3.org/2000/svg">
<g clip-path="url(#clip0)">
<line x1="1.25" y1="16.75" x2="98.75" y2="16.875" stroke="black" stroke-opacity="0.25" stroke-width="2.5" stroke-linecap="round" stroke-linejoin="round"/>
<line x1="1.25" y1="28.75" x2="98.75" y2="28.875" stroke="black" stroke-opacity="0.25" stroke-width="2.5" stroke-linecap="round" stroke-linejoin="round"/>
<line x1="1.25" y1="40.75" x2="98.75" y2="40.875" stroke="black" stroke-opacity="0.25" stroke-width="2.5" stroke-linecap="round" stroke-linejoin="round"/>
<line x1="1.25" y1="52.75" x2="98.75" y2="52.875" stroke="black" stroke-opacity="0.25" stroke-width="2.5" stroke-linecap="round" stroke-linejoin="round"/>
<line x1="1.25" y1="64.75" x2="98.75" y2="64.875" stroke="black" stroke-opacity="0.25" stroke-width="2.5" stroke-linecap="round" stroke-linejoin="round"/>
<path d="M28.8 44.575V29.1H30.75V37.85C31.1167 37.4 31.525 37.0667 31.975 36.85C32.4417 36.6167 32.8917 36.5 33.325 36.5C34.025 36.5 34.5833 36.7667 35 37.3C35.4167 37.8167 35.625 38.5167 35.625 39.4C35.625 40.4333 35.3333 41.35 34.75 42.15C34.1833 42.95 33.4083 43.575 32.425 44.025C31.975 44.225 31.5167 44.3667 31.05 44.45C30.5833 44.5333 30.0833 44.575 29.55 44.575H28.8ZM32.6 38.6C32.2833 38.6 31.9583 38.725 31.625 38.975C31.2917 39.225 31 39.5333 30.75 39.9V42.8C31.5833 42.6167 32.225 42.2167 32.675 41.6C32.8917 41.3333 33.05 41.0333 33.15 40.7C33.2667 40.3667 33.325 40.0333 33.325 39.7C33.325 39.3 33.2583 39.0167 33.125 38.85C33.0083 38.6833 32.8333 38.6 32.6 38.6Z" fill="black"/>
<path d="M37.675 26.7V11.225H39.625V19.975C39.9917 19.525 40.4 19.1917 40.85 18.975C41.3167 18.7417 41.7667 18.625 42.2 18.625C42.9 18.625 43.4583 18.8917 43.875 19.425C44.2917 19.9417 44.5 20.6417 44.5 21.525C44.5 22.5583 44.2083 23.475 43.625 24.275C43.0583 25.075 42.2833 25.7 41.3 26.15C40.85 26.35 40.3917 26.4917 39.925 26.575C39.4583 26.6583 38.9583 26.7 38.425 26.7H37.675ZM41.475 20.725C41.1583 20.725 40.8333 20.85 40.5 21.1C40.1667 21.35 39.875 21.6583 39.625 22.025V24.925C40.4583 24.7417 41.1 24.3417 41.55 23.725C41.7667 23.4583 41.925 23.1583 42.025 22.825C42.1417 22.4917 42.2 22.1583 42.2 21.825C42.2 21.425 42.1333 21.1417 42 20.975C41.8833 20.8083 41.7083 20.725 41.475 20.725Z" fill="black"/>
<path d="M47.05 50.95V35.475H49V44.225C49.3667 43.775 49.775 43.4417 50.225 43.225C50.6917 42.9917 51.1417 42.875 51.575 42.875C52.275 42.875 52.8333 43.1417 53.25 43.675C53.6667 44.1917 53.875 44.8917 53.875 45.775C53.875 46.8083 53.5833 47.725 53 48.525C52.4333 49.325 51.6583 49.95 50.675 50.4C50.225 50.6 49.7667 50.7417 49.3 50.825C48.8333 50.9083 48.3333 50.95 47.8 50.95H47.05ZM50.85 44.975C50.5333 44.975 50.2083 45.1 49.875 45.35C49.5417 45.6 49.25 45.9083 49 46.275V49.175C49.8333 48.9917 50.475 48.5917 50.925 47.975C51.1417 47.7083 51.3 47.4083 51.4 47.075C51.5167 46.7417 51.575 46.4083 51.575 46.075C51.575 45.675 51.5083 45.3917 51.375 45.225C51.2583 45.0583 51.0833 44.975 50.85 44.975Z" fill="black"/>
<path d="M56.3 33.075V17.6H58.25V26.35C58.6167 25.9 59.025 25.5667 59.475 25.35C59.9417 25.1167 60.3917 25 60.825 25C61.525 25 62.0833 25.2667 62.5 25.8C62.9167 26.3167 63.125 27.0167 63.125 27.9C63.125 28.9333 62.8333 29.85 62.25 30.65C61.6833 31.45 60.9083 32.075 59.925 32.525C59.475 32.725 59.0167 32.8667 58.55 32.95C58.0833 33.0333 57.5833 33.075 57.05 33.075H56.3ZM60.1 27.1C59.7833 27.1 59.4583 27.225 59.125 27.475C58.7917 27.725 58.5 28.0333 58.25 28.4V31.3C59.0833 31.1167 59.725 30.7167 60.175 30.1C60.3917 29.8333 60.55 29.5333 60.65 29.2C60.7667 28.8667 60.825 28.5333 60.825 28.2C60.825 27.8 60.7583 27.5167 60.625 27.35C60.5083 27.1833 60.3333 27.1 60.1 27.1Z" fill="black"/>
<path d="M65.175 57.2V41.725H67.125V50.475C67.4917 50.025 67.9 49.6917 68.35 49.475C68.8167 49.2417 69.2667 49.125 69.7 49.125C70.4 49.125 70.9583 49.3917 71.375 49.925C71.7917 50.4417 72 51.1417 72 52.025C72 53.0583 71.7083 53.975 71.125 54.775C70.5583 55.575 69.7833 56.2 68.8 56.65C68.35 56.85 67.8917 56.9917 67.425 57.075C66.9583 57.1583 66.4583 57.2 65.925 57.2H65.175ZM68.975 51.225C68.6583 51.225 68.3333 51.35 68 51.6C67.6667 51.85 67.375 52.1583 67.125 52.525V55.425C67.9583 55.2417 68.6 54.8417 69.05 54.225C69.2667 53.9583 69.425 53.6583 69.525 53.325C69.6417 52.9917 69.7 52.6583 69.7 52.325C69.7 51.925 69.6333 51.6417 69.5 51.475C69.3833 51.3083 69.2083 51.225 68.975 51.225Z" fill="black"/>
<path d="M72.05 39.2V23.725H74V32.475C74.3667 32.025 74.775 31.6917 75.225 31.475C75.6917 31.2417 76.1417 31.125 76.575 31.125C77.275 31.125 77.8333 31.3917 78.25 31.925C78.6667 32.4417 78.875 33.1417 78.875 34.025C78.875 35.0583 78.5833 35.975 78 36.775C77.4333 37.575 76.6583 38.2 75.675 38.65C75.225 38.85 74.7667 38.9917 74.3 39.075C73.8333 39.1583 73.3333 39.2 72.8 39.2H72.05ZM75.85 33.225C75.5333 33.225 75.2083 33.35 74.875 33.6C74.5417 33.85 74.25 34.1583 74 34.525V37.425C74.8333 37.2417 75.475 36.8417 75.925 36.225C76.1417 35.9583 76.3 35.6583 76.4 35.325C76.5167 34.9917 76.575 34.6583 76.575 34.325C76.575 33.925 76.5083 33.6417 76.375 33.475C76.2583 33.3083 76.0833 33.225 75.85 33.225Z" fill="black"/>
<g clip-path="url(#clip1)">
<path d="M19.0485 16.1378C18.1553 17.6831 17.119 18.9721 15.9607 19.9812L14.0645 21.6954C11.1664 24.6145 9.08113 26.9729 7.86337 28.7042C5.64534 31.8529 4.42933 35.0517 4.24596 38.2114C4.04129 41.775 4.93837 45.1575 6.91285 48.2674C9.00639 51.5812 11.6492 53.3777 14.7699 53.6081C15.4849 53.6618 16.2684 53.653 16.92 53.6045L16.6764 51.1165C16.2223 51.1638 15.7409 51.1714 15.2364 51.1333C13.1861 50.9814 11.3552 50.0225 9.79092 48.2837C8.15624 46.4781 7.42385 44.488 7.55595 42.2018C7.80558 37.8706 10.2852 33.5827 14.9266 29.449L16.9999 27.5779C18.8236 25.8114 20.3006 23.5912 21.3921 20.9728C22.4721 18.3736 23.1054 15.5599 23.2764 12.6108C23.3776 10.878 23.1649 8.72649 22.652 6.2174C21.9478 2.80981 20.9456 1.10442 19.5808 1.00248C19.0958 0.968502 18.5648 1.24526 17.917 1.8931C16.3414 3.50541 15.1962 5.45876 14.5096 7.68986C13.98 9.39525 13.6282 11.6761 13.4657 14.4683C13.3977 15.6305 13.5337 17.7772 13.8579 20.3685L15.7793 18.3514C15.7732 18.0601 15.7804 17.7572 15.8002 17.4396C15.9014 15.6616 16.2975 13.7309 16.9721 11.7042C17.8316 9.16896 18.6426 8.40245 19.1736 8.20669C19.3187 8.15301 19.4604 8.13332 19.6114 8.14415C20.3034 8.19635 20.9927 8.52802 20.8748 10.6013C20.7753 12.3591 20.1598 14.2209 19.0485 16.1378Z" fill="black"/>
<path d="M20.7505 52.5018C21.995 51.8695 23.058 50.9067 23.9173 49.633C25.0156 48.0175 25.633 46.108 25.7569 43.9581C25.9133 41.3188 25.3541 38.9257 24.102 36.8433C22.7284 34.5622 20.8474 33.318 18.5086 33.1434C18.2409 33.1235 17.9561 33.125 17.6623 33.1496L17.1618 28.9166L15.0613 30.6678L15.3835 33.6704C14.1257 34.2596 13.0312 35.1896 12.1208 36.4417C11.073 37.9004 10.4896 39.5055 10.3906 41.2141C10.2893 42.989 10.6387 44.6146 11.4295 46.0361C11.8412 46.7947 12.4087 47.4691 13.0585 48.0202C14.1244 48.9189 15.3535 48.8514 15.5481 48.3632C15.745 47.8749 15.0148 47.1086 14.4423 46.086C14.116 45.5071 13.9552 44.8123 13.9552 43.9938C13.9552 42.2572 14.8799 40.7643 16.1967 40.1036L17.4292 50.9897L17.7171 53.5155C17.9048 54.7154 18.0906 55.9101 18.2683 57.0908C18.4855 58.6884 18.562 60.0732 18.4944 61.2066C18.4034 62.7763 17.9713 64.0589 17.2085 65.0214C16.7231 65.6333 16.156 66.0199 15.5149 66.2341C16.3755 65.2585 16.9084 63.9121 16.9084 62.4229C16.9084 59.4497 14.781 57.0374 12.1569 57.0374C11.4284 57.0374 10.7467 57.2373 10.1301 57.569C10.0519 57.6072 9.9782 57.6645 9.90107 57.7103C9.73182 57.815 9.56236 57.9196 9.40441 58.0457C9.35031 58.0917 9.2986 58.1449 9.24538 58.1947C8.1834 59.1343 7.48751 60.5624 7.42581 62.1907C7.42581 62.1932 7.42341 62.1959 7.42341 62.1984C7.42341 62.1996 7.42341 62.2008 7.42341 62.2023C7.42059 62.2789 7.40386 62.3476 7.40386 62.4229C7.40386 62.4867 7.41842 62.5441 7.42081 62.6051C7.41842 64.3494 8.05804 65.8502 9.34119 67.0663C10.5544 68.2153 12.0085 68.8589 13.663 68.9813C14.6031 69.0502 15.5108 68.9278 16.3585 68.6156C17.0514 68.3593 17.7219 67.9705 18.3463 67.4615C19.8584 66.225 20.6818 64.6092 20.7952 62.6522C20.8819 61.1593 20.8157 59.3933 20.5917 57.3801L19.9751 52.8424L18.4204 39.817C20.155 40.1942 21.4679 41.9206 21.4679 43.995C21.4679 45.469 21.0471 47.7946 20.2619 49.0122L20.7505 52.5018Z" fill="black"/>
</g>
</g>
<defs>
<clipPath id="clip0">
<rect width="100" height="70" fill="white"/>
</clipPath>
<clipPath id="clip1">
<rect width="60" height="68" fill="white" transform="translate(-15 1)"/>
</clipPath>
</defs>
</svg>
