<svg width="512" height="512" viewBox="0 0 512 512" fill="none" xmlns="http://www.w3.org/2000/svg">
<line x1="16" y1="53" x2="496" y2="54" stroke="black" stroke-opacity="0.25" stroke-width="20" stroke-linecap="round" stroke-linejoin="round"/>
<line x1="16" y1="149" x2="496" y2="150" stroke="black" stroke-opacity="0.25" stroke-width="20" stroke-linecap="round" stroke-linejoin="round"/>
<line x1="16" y1="245" x2="496" y2="246" stroke="black" stroke-opacity="0.25" stroke-width="20" stroke-linecap="round" stroke-linejoin="round"/>
<line x1="16" y1="341" x2="496" y2="342" stroke="black" stroke-opacity="0.25" stroke-width="20" stroke-linecap="round" stroke-linejoin="round"/>
<line x1="16" y1="437" x2="496" y2="438" stroke="black" stroke-opacity="0.25" stroke-width="20" stroke-linecap="round" stroke-linejoin="round"/>
<path d="M265.75 64C256.083 64 248 70.1667 241.5 82.5C235.167 94.6667 230.583 110.75 227.75 130.75C237.917 124.25 249.417 121 262.25 121C275.083 121 284.917 125.25 291.75 133.75C298.75 142.083 302.25 153.833 302.25 169C302.25 184 296.25 197.75 284.25 210.25C272.25 222.75 257.333 229 239.5 229C204.333 229 186.75 207 186.75 163C186.75 142.5 190.083 123.5 196.75 106C203.583 88.5 213.167 74.5833 225.5 64.25C237.833 53.75 251.583 48.5 266.75 48.5C278.083 48.5 288.167 51.4167 297 57.25C305.833 62.9167 310.25 71.1667 310.25 82C310.25 89.6667 308.25 95.5833 304.25 99.75C302.917 99.9167 301.083 100 298.75 100C286.583 100 277.5 96.75 271.5 90.25L275.25 66.75C272.583 64.9167 269.417 64 265.75 64ZM247.25 138.5C241.25 138.5 234.167 141.333 226 147C225.333 155.167 225 165.583 225 178.25C225 190.75 226.167 199.75 228.5 205.25C230.833 210.75 234.75 213.5 240.25 213.5C248.083 213.5 253.917 208.75 257.75 199.25C261.583 189.75 263.5 179.167 263.5 167.5C263.5 148.167 258.083 138.5 247.25 138.5ZM287.25 377.25C287.25 392.583 281.167 405 269 414.5C256.833 424 243.583 428.75 229.25 428.75C215.083 428.75 204 425.25 196 418.25C188 411.25 184 402.167 184 391C184 372.167 197.333 353.75 224 335.75C211 315.583 204.5 299.667 204.5 288C204.5 276.167 209.833 266.667 220.5 259.5C231.333 252.167 243.583 248.5 257.25 248.5C271.083 248.5 281.5 251.5 288.5 257.5C295.5 263.5 299 270.833 299 279.5C299 294 288.167 310.833 266.5 330C267.667 332 269.833 335.333 273 340C276.167 344.667 278.583 348.5 280.25 351.5C284.917 359.5 287.25 368.083 287.25 377.25ZM205.75 389.75C205.75 396.583 207.917 402 212.25 406C216.583 410 222.167 412 229 412C236 412 242.083 410.333 247.25 407C252.417 403.5 255 398.917 255 393.25C255 386.75 251.417 377.833 244.25 366.5C241.75 362.667 238.083 357.083 233.25 349.75C214.917 362.25 205.75 375.583 205.75 389.75ZM278 279.75C278 270.083 272.417 265.25 261.25 265.25C255.25 265.25 250.083 266.583 245.75 269.25C241.583 271.75 239.5 275.333 239.5 280C239.5 284.5 241.667 290.667 246 298.5C250.5 306.333 254.25 312.167 257.25 316C262.25 312 266.917 306.333 271.25 299C275.75 291.5 278 285.083 278 279.75Z" fill="black"/>
</svg>
