<svg width="512" height="512" viewBox="0 0 512 512" fill="none" xmlns="http://www.w3.org/2000/svg">
<line x1="16" y1="53" x2="496" y2="54" stroke="black" stroke-opacity="0.25" stroke-width="20" stroke-linecap="round" stroke-linejoin="round"/>
<line x1="16" y1="149" x2="496" y2="150" stroke="black" stroke-opacity="0.25" stroke-width="20" stroke-linecap="round" stroke-linejoin="round"/>
<line x1="16" y1="245" x2="496" y2="246" stroke="black" stroke-opacity="0.25" stroke-width="20" stroke-linecap="round" stroke-linejoin="round"/>
<line x1="16" y1="341" x2="496" y2="342" stroke="black" stroke-opacity="0.25" stroke-width="20" stroke-linecap="round" stroke-linejoin="round"/>
<line x1="16" y1="437" x2="496" y2="438" stroke="black" stroke-opacity="0.25" stroke-width="20" stroke-linecap="round" stroke-linejoin="round"/>
<path d="M191.25 87.5C194.583 77.3333 201.333 68.3333 211.5 60.5C221.667 52.5 233.417 48.5 246.75 48.5C260.25 48.5 271.083 52.1667 279.25 59.5C287.583 66.6667 291.75 75.4167 291.75 85.75C291.75 96.0833 287.917 105.25 280.25 113.25C272.583 121.083 263 126.5 251.5 129.5C262.833 131.5 272.083 136.333 279.25 144C286.583 151.667 290.25 161.583 290.25 173.75C290.25 189.083 283.833 202.167 271 213C258.167 223.667 243.167 229 226 229C207.333 229 192.5 223.5 181.5 212.5C175.667 206.833 172.75 200.083 172.75 192.25C172.75 189.75 173.417 186.75 174.75 183.25C176.083 179.583 177.75 176.75 179.75 174.75C181.417 174.417 183.25 174.25 185.25 174.25C197.083 174.25 206.167 177.417 212.5 183.75L209 210.25C211.333 212.083 215.25 213 220.75 213C229.083 213 236.25 208.667 242.25 200C248.417 191.167 251.5 180.75 251.5 168.75C251.5 156.75 248.833 148.583 243.5 144.25C238.167 139.75 229.333 137.5 217 137.5L211.25 137.75L212.75 125C220.917 124.167 227 122.833 231 121C235.167 119 239 116.667 242.5 114C250.333 108.333 254.25 99.9167 254.25 88.75C254.25 81.75 252.333 76.5833 248.5 73.25C244.833 69.75 240.417 68 235.25 68C221.583 68 210.583 76.0833 202.25 92.25L191.25 87.5ZM301.5 386.5C298 388.833 293.833 390 289 390C284.167 390 279.833 389.667 276 389C274.333 401.5 273.5 412.5 273.5 422C267 425.333 253.917 427 234.25 427H231.75C231.75 419.667 234.083 404.583 238.75 381.75C228.25 380.083 218.833 379.25 210.5 379.25C202.333 379.25 195 380.333 188.5 382.5L178.75 386C178.75 386 178.667 386 178.5 386C176.833 386 174.75 384.167 172.25 380.5C169.583 376.833 168.167 373.417 168 370.25C168 369.083 169.5 367 172.5 364C198.667 326.833 225.167 289.75 252 252.75C262.667 250.417 277.5 249 296.5 248.5C298.667 251.833 299.75 256.583 299.75 262.75C299.75 268.75 298.75 276.583 296.75 286.25C294.917 295.917 292.25 308.25 288.75 323.25C285.25 338.25 282.583 350.583 280.75 360.25C287.083 360.583 292 360.75 295.5 360.75C299.167 360.75 301.833 359.5 303.5 357L307.5 350.25L316.5 353.25C314 370.583 309 381.667 301.5 386.5ZM244.25 356C254.917 309.167 260.333 280.833 260.5 271C245.167 288.667 226.333 316 204 353C215.167 353.167 228.583 354.167 244.25 356Z" fill="black"/>
</svg>
