<svg width="512" height="512" viewBox="0 0 512 512" fill="none" xmlns="http://www.w3.org/2000/svg">
<line x1="16" y1="53" x2="496" y2="54" stroke="black" stroke-opacity="0.25" stroke-width="20" stroke-linecap="round" stroke-linejoin="round"/>
<line x1="16" y1="149" x2="496" y2="150" stroke="black" stroke-opacity="0.25" stroke-width="20" stroke-linecap="round" stroke-linejoin="round"/>
<line x1="16" y1="245" x2="496" y2="246" stroke="black" stroke-opacity="0.25" stroke-width="20" stroke-linecap="round" stroke-linejoin="round"/>
<line x1="16" y1="341" x2="496" y2="342" stroke="black" stroke-opacity="0.25" stroke-width="20" stroke-linecap="round" stroke-linejoin="round"/>
<line x1="16" y1="437" x2="496" y2="438" stroke="black" stroke-opacity="0.25" stroke-width="20" stroke-linecap="round" stroke-linejoin="round"/>
<path d="M301.5 186.5C298 188.833 293.833 190 289 190C284.167 190 279.833 189.667 276 189C274.333 201.5 273.5 212.5 273.5 222C267 225.333 253.917 227 234.25 227H231.75C231.75 219.667 234.083 204.583 238.75 181.75C228.25 180.083 218.833 179.25 210.5 179.25C202.333 179.25 195 180.333 188.5 182.5L178.75 186C178.75 186 178.667 186 178.5 186C176.833 186 174.75 184.167 172.25 180.5C169.583 176.833 168.167 173.417 168 170.25C168 169.083 169.5 167 172.5 164C198.667 126.833 225.167 89.75 252 52.75C262.667 50.4167 277.5 49 296.5 48.5C298.667 51.8333 299.75 56.5833 299.75 62.75C299.75 68.75 298.75 76.5833 296.75 86.25C294.917 95.9167 292.25 108.25 288.75 123.25C285.25 138.25 282.583 150.583 280.75 160.25C287.083 160.583 292 160.75 295.5 160.75C299.167 160.75 301.833 159.5 303.5 157L307.5 150.25L316.5 153.25C314 170.583 309 181.667 301.5 186.5ZM244.25 156C254.917 109.167 260.333 80.8333 260.5 71C245.167 88.6667 226.333 116 204 153C215.167 153.167 228.583 154.167 244.25 156ZM301.5 386.5C298 388.833 293.833 390 289 390C284.167 390 279.833 389.667 276 389C274.333 401.5 273.5 412.5 273.5 422C267 425.333 253.917 427 234.25 427H231.75C231.75 419.667 234.083 404.583 238.75 381.75C228.25 380.083 218.833 379.25 210.5 379.25C202.333 379.25 195 380.333 188.5 382.5L178.75 386C178.75 386 178.667 386 178.5 386C176.833 386 174.75 384.167 172.25 380.5C169.583 376.833 168.167 373.417 168 370.25C168 369.083 169.5 367 172.5 364C198.667 326.833 225.167 289.75 252 252.75C262.667 250.417 277.5 249 296.5 248.5C298.667 251.833 299.75 256.583 299.75 262.75C299.75 268.75 298.75 276.583 296.75 286.25C294.917 295.917 292.25 308.25 288.75 323.25C285.25 338.25 282.583 350.583 280.75 360.25C287.083 360.583 292 360.75 295.5 360.75C299.167 360.75 301.833 359.5 303.5 357L307.5 350.25L316.5 353.25C314 370.583 309 381.667 301.5 386.5ZM244.25 356C254.917 309.167 260.333 280.833 260.5 271C245.167 288.667 226.333 316 204 353C215.167 353.167 228.583 354.167 244.25 356Z" fill="black"/>
</svg>
