<svg width="512" height="512" viewBox="0 0 512 512" fill="none" xmlns="http://www.w3.org/2000/svg">
<line x1="16" y1="53" x2="496" y2="54" stroke="black" stroke-opacity="0.25" stroke-width="20" stroke-linecap="round" stroke-linejoin="round"/>
<line x1="16" y1="149" x2="496" y2="150" stroke="black" stroke-opacity="0.25" stroke-width="20" stroke-linecap="round" stroke-linejoin="round"/>
<line x1="16" y1="245" x2="496" y2="246" stroke="black" stroke-opacity="0.25" stroke-width="20" stroke-linecap="round" stroke-linejoin="round"/>
<line x1="16" y1="341" x2="496" y2="342" stroke="black" stroke-opacity="0.25" stroke-width="20" stroke-linecap="round" stroke-linejoin="round"/>
<line x1="16" y1="437" x2="496" y2="438" stroke="black" stroke-opacity="0.25" stroke-width="20" stroke-linecap="round" stroke-linejoin="round"/>
<path d="M216.75 80.25C208.417 80.25 199.083 83.6667 188.75 90.5C185.083 82 183.25 72.8333 183.25 63C183.25 59.3333 183.75 56 184.75 53C194.75 50.5 203.5 49.25 211 49.25C218.5 49.25 228.167 49.8333 240 51C252 52 261.417 52.5 268.25 52.5C275.25 52.5 282.833 51.8333 291 50.5L294.75 59.25C276.75 86.0833 262.583 113.75 252.25 142.25C242.083 170.583 235.833 197.167 233.5 222C232 223.167 227.5 224.333 220 225.5C212.667 226.5 206.083 227 200.25 227H195C196.667 213 199.833 199 204.5 185C212.333 160.833 229.667 126.667 256.5 82.5C243.667 81 230.417 80.25 216.75 80.25ZM287.25 377.25C287.25 392.583 281.167 405 269 414.5C256.833 424 243.583 428.75 229.25 428.75C215.083 428.75 204 425.25 196 418.25C188 411.25 184 402.167 184 391C184 372.167 197.333 353.75 224 335.75C211 315.583 204.5 299.667 204.5 288C204.5 276.167 209.833 266.667 220.5 259.5C231.333 252.167 243.583 248.5 257.25 248.5C271.083 248.5 281.5 251.5 288.5 257.5C295.5 263.5 299 270.833 299 279.5C299 294 288.167 310.833 266.5 330C267.667 332 269.833 335.333 273 340C276.167 344.667 278.583 348.5 280.25 351.5C284.917 359.5 287.25 368.083 287.25 377.25ZM205.75 389.75C205.75 396.583 207.917 402 212.25 406C216.583 410 222.167 412 229 412C236 412 242.083 410.333 247.25 407C252.417 403.5 255 398.917 255 393.25C255 386.75 251.417 377.833 244.25 366.5C241.75 362.667 238.083 357.083 233.25 349.75C214.917 362.25 205.75 375.583 205.75 389.75ZM278 279.75C278 270.083 272.417 265.25 261.25 265.25C255.25 265.25 250.083 266.583 245.75 269.25C241.583 271.75 239.5 275.333 239.5 280C239.5 284.5 241.667 290.667 246 298.5C250.5 306.333 254.25 312.167 257.25 316C262.25 312 266.917 306.333 271.25 299C275.75 291.5 278 285.083 278 279.75Z" fill="black"/>
</svg>
